<svg width="49" height="44" viewBox="0 0 49 44" fill="none" xmlns="http://www.w3.org/2000/svg">
<path opacity="0.55" d="M15.9 42.8267C11.1351 42.8267 7.45775 40.7869 4.94155 37.2105C2.40235 33.6014 1.01333 28.374 1.01333 22H-0.653333C-0.653333 28.586 0.777646 34.1886 3.57845 38.1695C6.40226 42.1831 10.5849 44.4933 15.9 44.4933V42.8267ZM1.01333 22C1.01333 15.626 2.40235 10.3986 4.94155 6.78951C7.45775 3.21312 11.1351 1.17333 15.9 1.17333V-0.493338C10.5849 -0.493338 6.40226 1.81687 3.57845 5.83049C0.777646 9.8114 -0.653333 15.414 -0.653333 22H1.01333ZM15.9 1.17333C20.6649 1.17333 24.3423 3.21312 26.8584 6.78951C29.3976 10.3986 30.7867 15.626 30.7867 22H32.4533C32.4533 15.414 31.0224 9.8114 28.2216 5.83049C25.3977 1.81687 21.2151 -0.493338 15.9 -0.493338V1.17333ZM30.7867 22C30.7867 28.374 29.3976 33.6014 26.8584 37.2105C24.3423 40.7869 20.6649 42.8267 15.9 42.8267V44.4933C21.2151 44.4933 25.3977 42.1831 28.2216 38.1695C31.0224 34.1886 32.4533 28.586 32.4533 22H30.7867ZM15.9 41.4333C20.0824 41.4333 23.459 39.5812 25.7559 36.176C28.0274 32.8085 29.2133 27.9735 29.2133 22H27.5467C27.5467 27.7865 26.3927 32.2515 24.3741 35.244C22.381 38.1988 19.5176 39.7667 15.9 39.7667V41.4333ZM29.2133 22C29.2133 16.0265 28.0274 11.1915 25.7559 7.82399C23.459 4.41884 20.0824 2.56666 15.9 2.56666V4.23333C19.5176 4.23333 22.381 5.80115 24.3741 8.756C26.3927 11.7485 27.5467 16.2135 27.5467 22H29.2133ZM15.9 2.56666C11.7176 2.56666 8.34101 4.41884 6.04414 7.82399C3.77265 11.1915 2.58667 16.0265 2.58667 22H4.25333C4.25333 16.2135 5.40735 11.7485 7.42586 8.756C9.41899 5.80115 12.2824 4.23333 15.9 4.23333V2.56666ZM2.58667 22C2.58667 27.9735 3.77265 32.8085 6.04414 36.176C8.34101 39.5812 11.7176 41.4333 15.9 41.4333V39.7667C12.2824 39.7667 9.41899 38.1988 7.42586 35.244C5.40735 32.2515 4.25333 27.7865 4.25333 22H2.58667ZM45.7969 0.999994V0.16666H45.6575L45.5256 0.212046L45.7969 0.999994ZM48.4969 0.999994H49.3302V0.16666H48.4969V0.999994ZM48.4969 43V43.8333H49.3302V43H48.4969ZM45.3169 43H44.4835V43.8333H45.3169V43ZM45.3169 4.48H46.1502V3.344L45.0666 3.68512L45.3169 4.48ZM35.5969 7.54L34.795 7.76663L35.0284 8.59262L35.8471 8.33487L35.5969 7.54ZM34.8169 4.77999L34.5456 3.99205L33.8007 4.2485L34.015 5.00663L34.8169 4.77999ZM45.7969 1.83333H48.4969V0.16666H45.7969V1.83333ZM47.6635 0.999994V43H49.3302V0.999994H47.6635ZM48.4969 42.1667H45.3169V43.8333H48.4969V42.1667ZM46.1502 43V4.48H44.4835V43H46.1502ZM45.0666 3.68512L35.3466 6.74512L35.8471 8.33487L45.5671 5.27487L45.0666 3.68512ZM36.3988 7.31337L35.6188 4.55336L34.015 5.00663L34.795 7.76663L36.3988 7.31337ZM35.0881 5.56794L46.0681 1.78794L45.5256 0.212046L34.5456 3.99205L35.0881 5.56794Z" fill="black"/>
</svg>
