<svg width="64" height="44" viewBox="0 0 64 44" fill="none" xmlns="http://www.w3.org/2000/svg">
<path opacity="0.55" d="M15.9 42.8267C11.1351 42.8267 7.45775 40.7869 4.94155 37.2105C2.40235 33.6014 1.01333 28.374 1.01333 22H-0.653333C-0.653333 28.586 0.777646 34.1886 3.57845 38.1695C6.40226 42.1831 10.5849 44.4933 15.9 44.4933V42.8267ZM1.01333 22C1.01333 15.626 2.40235 10.3986 4.94155 6.78951C7.45775 3.21312 11.1351 1.17333 15.9 1.17333V-0.493338C10.5849 -0.493338 6.40226 1.81687 3.57845 5.83049C0.777646 9.8114 -0.653333 15.414 -0.653333 22H1.01333ZM15.9 1.17333C20.6649 1.17333 24.3423 3.21312 26.8584 6.78951C29.3976 10.3986 30.7867 15.626 30.7867 22H32.4533C32.4533 15.414 31.0224 9.8114 28.2216 5.83049C25.3977 1.81687 21.2151 -0.493338 15.9 -0.493338V1.17333ZM30.7867 22C30.7867 28.374 29.3976 33.6014 26.8584 37.2105C24.3423 40.7869 20.6649 42.8267 15.9 42.8267V44.4933C21.2151 44.4933 25.3977 42.1831 28.2216 38.1695C31.0224 34.1886 32.4533 28.586 32.4533 22H30.7867ZM15.9 41.4333C20.0824 41.4333 23.459 39.5812 25.7559 36.176C28.0274 32.8085 29.2133 27.9735 29.2133 22H27.5467C27.5467 27.7865 26.3927 32.2515 24.3741 35.244C22.381 38.1988 19.5176 39.7667 15.9 39.7667V41.4333ZM29.2133 22C29.2133 16.0265 28.0274 11.1915 25.7559 7.82399C23.459 4.41884 20.0824 2.56666 15.9 2.56666V4.23333C19.5176 4.23333 22.381 5.80115 24.3741 8.756C26.3927 11.7485 27.5467 16.2135 27.5467 22H29.2133ZM15.9 2.56666C11.7176 2.56666 8.34101 4.41884 6.04414 7.82399C3.77265 11.1915 2.58667 16.0265 2.58667 22H4.25333C4.25333 16.2135 5.40735 11.7485 7.42586 8.756C9.41899 5.80115 12.2824 4.23333 15.9 4.23333V2.56666ZM2.58667 22C2.58667 27.9735 3.77265 32.8085 6.04414 36.176C8.34101 39.5812 11.7176 41.4333 15.9 41.4333V39.7667C12.2824 39.7667 9.41899 38.1988 7.42586 35.244C5.40735 32.2515 4.25333 27.7865 4.25333 22H2.58667ZM36.787 43H35.9537V43.8333H36.787V43ZM36.787 40.12L36.1899 39.5387L35.9537 39.7814V40.12H36.787ZM52.207 24.28L52.8042 24.8613L52.8057 24.8597L52.207 24.28ZM39.727 9.76L39.2983 10.4746L40.0881 10.9484L40.4808 10.1153L39.727 9.76ZM37.027 8.14L36.2782 7.7743L35.9427 8.46125L36.5983 8.85457L37.027 8.14ZM54.367 26.56L53.7737 25.9749L53.7698 25.9788L54.367 26.56ZM41.347 39.94L40.7498 39.3588L39.3734 40.7733H41.347V39.94ZM63.187 39.94H64.0204V39.1067H63.187V39.94ZM63.187 43V43.8333H64.0204V43H63.187ZM37.6204 43V40.12H35.9537V43H37.6204ZM37.3842 40.7013L52.8042 24.8613L51.6099 23.6987L36.1899 39.5387L37.3842 40.7013ZM52.8057 24.8597C54.6485 22.9565 56.3918 20.9716 57.6762 18.9167C58.9608 16.8612 59.8204 14.682 59.8204 12.4H58.1537C58.1537 14.258 57.4532 16.1288 56.2629 18.0333C55.0722 19.9384 53.4256 21.8235 51.6084 23.7003L52.8057 24.8597ZM59.8204 12.4C59.8204 9.3075 58.7023 6.82687 56.842 5.12513C54.992 3.4327 52.4703 2.56666 49.747 2.56666V4.23333C52.1237 4.23333 54.2221 4.98729 55.7171 6.35486C57.2018 7.71312 58.1537 9.73249 58.1537 12.4H59.8204ZM49.747 2.56666C44.8673 2.56666 41.092 4.9103 38.9733 9.40465L40.4808 10.1153C42.322 6.2097 45.5068 4.23333 49.747 4.23333V2.56666ZM40.1558 9.04542L37.4558 7.42542L36.5983 8.85457L39.2983 10.4746L40.1558 9.04542ZM37.7758 8.50569C40.1451 3.65426 44.5798 1.17333 49.747 1.17333V-0.493338C43.9943 -0.493338 38.9489 2.30573 36.2782 7.7743L37.7758 8.50569ZM49.747 1.17333C52.7791 1.17333 55.6962 2.17998 57.8439 4.07051C59.9777 5.94881 61.3937 8.7341 61.3937 12.4H63.0604C63.0604 8.2659 61.4464 5.02118 58.9452 2.81948C56.4579 0.630016 53.1349 -0.493338 49.747 -0.493338V1.17333ZM61.3937 12.4C61.3937 17.248 58.039 21.6495 53.7737 25.9749L54.9604 27.1451C59.2151 22.8305 63.0604 17.992 63.0604 12.4H61.3937ZM53.7698 25.9788L40.7498 39.3588L41.9443 40.5212L54.9643 27.1412L53.7698 25.9788ZM41.347 40.7733H63.187V39.1067H41.347V40.7733ZM62.3537 39.94V43H64.0204V39.94H62.3537ZM63.187 42.1667H36.787V43.8333H63.187V42.1667Z" fill="black"/>
</svg>
