<svg width="64" height="44" viewBox="0 0 64 44" fill="none" xmlns="http://www.w3.org/2000/svg">
<path opacity="0.55" d="M15.9 42.8267C11.1351 42.8267 7.45775 40.7869 4.94155 37.2105C2.40235 33.6014 1.01333 28.374 1.01333 22H-0.653333C-0.653333 28.586 0.777646 34.1886 3.57845 38.1695C6.40226 42.1831 10.5849 44.4933 15.9 44.4933V42.8267ZM1.01333 22C1.01333 15.626 2.40235 10.3986 4.94155 6.78951C7.45775 3.21312 11.1351 1.17333 15.9 1.17333V-0.493338C10.5849 -0.493338 6.40226 1.81687 3.57845 5.83049C0.777646 9.8114 -0.653333 15.414 -0.653333 22H1.01333ZM15.9 1.17333C20.6649 1.17333 24.3423 3.21312 26.8584 6.78951C29.3976 10.3986 30.7867 15.626 30.7867 22H32.4533C32.4533 15.414 31.0224 9.8114 28.2216 5.83049C25.3977 1.81687 21.2151 -0.493338 15.9 -0.493338V1.17333ZM30.7867 22C30.7867 28.374 29.3976 33.6014 26.8584 37.2105C24.3423 40.7869 20.6649 42.8267 15.9 42.8267V44.4933C21.2151 44.4933 25.3977 42.1831 28.2216 38.1695C31.0224 34.1886 32.4533 28.586 32.4533 22H30.7867ZM15.9 41.4333C20.0824 41.4333 23.459 39.5812 25.7559 36.176C28.0274 32.8085 29.2133 27.9735 29.2133 22H27.5467C27.5467 27.7865 26.3927 32.2515 24.3741 35.244C22.381 38.1988 19.5176 39.7667 15.9 39.7667V41.4333ZM29.2133 22C29.2133 16.0265 28.0274 11.1915 25.7559 7.82399C23.459 4.41884 20.0824 2.56666 15.9 2.56666V4.23333C19.5176 4.23333 22.381 5.80115 24.3741 8.756C26.3927 11.7485 27.5467 16.2135 27.5467 22H29.2133ZM15.9 2.56666C11.7176 2.56666 8.34101 4.41884 6.04414 7.82399C3.77265 11.1915 2.58667 16.0265 2.58667 22H4.25333C4.25333 16.2135 5.40735 11.7485 7.42586 8.756C9.41899 5.80115 12.2824 4.23333 15.9 4.23333V2.56666ZM2.58667 22C2.58667 27.9735 3.77265 32.8085 6.04414 36.176C8.34101 39.5812 11.7176 41.4333 15.9 41.4333V39.7667C12.2824 39.7667 9.41899 38.1988 7.42586 35.244C5.40735 32.2515 4.25333 27.7865 4.25333 22H2.58667ZM51.0811 18.46L50.3975 17.9834L49.5849 19.1491L50.9989 19.2893L51.0811 18.46ZM35.9011 35.68L35.4772 34.9626L34.8645 35.3246L35.1261 35.9864L35.9011 35.68ZM38.5411 34.12L39.3223 33.8298L38.9752 32.8955L38.1172 33.4026L38.5411 34.12ZM48.2611 21.16L47.5647 21.6176L47.8116 21.9933H48.2611V21.16ZM46.8811 19.06L46.2001 18.5797L45.8731 19.0435L46.1847 19.5176L46.8811 19.06ZM57.5011 4L58.1821 4.48024L59.1084 3.16666H57.5011V4ZM36.9811 4H36.1478V4.83333H36.9811V4ZM36.9811 0.999994V0.16666H36.1478V0.999994H36.9811ZM61.1611 0.999994H61.9944V0.16666H61.1611V0.999994ZM61.1611 4L61.8447 4.47655L61.9944 4.26179V4H61.1611ZM50.9989 19.2893C54.176 19.6041 57.0054 20.8016 59.0308 22.7505C61.0448 24.6883 62.3078 27.4092 62.3078 30.88H63.9744C63.9744 26.9708 62.5374 23.8117 60.1864 21.5495C57.8468 19.2984 54.6462 17.9759 51.1633 17.6307L50.9989 19.2893ZM62.3078 30.88C62.3078 34.6909 60.8059 37.6541 58.4574 39.676C56.0953 41.7096 52.8321 42.8267 49.2811 42.8267V44.4933C53.1701 44.4933 56.8369 43.2704 59.5448 40.939C62.2663 38.5959 63.9744 35.1691 63.9744 30.88H62.3078ZM49.2811 42.8267C43.4026 42.8267 38.5571 40.1315 36.6761 35.3736L35.1261 35.9864C37.3251 41.5485 42.9195 44.4933 49.2811 44.4933V42.8267ZM36.325 36.3974L38.965 34.8374L38.1172 33.4026L35.4772 34.9626L36.325 36.3974ZM37.7599 34.4102C39.4718 39.0191 43.7498 41.4333 49.2811 41.4333V39.7667C44.2524 39.7667 40.7304 37.6209 39.3223 33.8298L37.7599 34.4102ZM49.2811 41.4333C52.503 41.4333 55.381 40.4692 57.4659 38.6387C59.5625 36.798 60.7944 34.1342 60.7944 30.88H59.1278C59.1278 33.6858 58.0797 35.882 56.3663 37.3863C54.6412 38.9008 52.1792 39.7667 49.2811 39.7667V41.4333ZM60.7944 30.88C60.7944 27.6255 59.5622 24.9604 57.4485 23.1191C55.3472 21.2887 52.4394 20.3267 49.1611 20.3267V21.9933C52.1228 21.9933 54.615 22.8613 56.3537 24.3759C58.08 25.8796 59.1278 28.0745 59.1278 30.88H60.7944ZM49.1611 20.3267H48.2611V21.9933H49.1611V20.3267ZM48.9575 20.7024L47.5775 18.6023L46.1847 19.5176L47.5647 21.6176L48.9575 20.7024ZM47.5621 19.5402L58.1821 4.48024L56.8201 3.51974L46.2001 18.5797L47.5621 19.5402ZM57.5011 3.16666H36.9811V4.83333H57.5011V3.16666ZM37.8144 4V0.999994H36.1478V4H37.8144ZM36.9811 1.83333H61.1611V0.16666H36.9811V1.83333ZM60.3278 0.999994V4H61.9944V0.999994H60.3278ZM60.4775 3.52344L50.3975 17.9834L51.7647 18.9366L61.8447 4.47655L60.4775 3.52344Z" fill="black"/>
</svg>
