<svg width="28" height="33" viewBox="0 0 28 33" fill="none" xmlns="http://www.w3.org/2000/svg">
<path d="M23.0813 31.349C21.3244 33.0771 19.3905 32.8204 17.5249 32.0215C15.5509 31.2053 13.7451 31.1824 11.6751 32.0642C9.08333 33.2026 7.70877 32.8876 6.14562 31.4726C-2.73158 22.4553 -1.53261 8.61559 8.46621 8.037C10.9046 8.14559 12.6106 9.34289 14.0377 9.4408C16.1651 8.99192 18.1962 7.73122 20.4723 7.87711C23.2002 8.07386 25.2664 9.14213 26.6348 11.0822C21.0262 14.4996 22.4165 21.9105 27.5954 23.9491C26.5861 26.6649 25.2696 29.3649 23.0634 31.3671L23.0813 31.349ZM13.8458 7.88938C13.5456 3.86508 16.7893 0.519083 20.5424 0.166668C21.1 4.82105 16.3768 8.3223 13.8458 7.88938Z" fill="#2D2D2D"/>
</svg>
