<svg width="81" height="80" viewBox="0 0 81 80" fill="none" xmlns="http://www.w3.org/2000/svg">
<path d="M22.5816 21.303C19.2482 21.303 16.7372 19.3549 16.7372 16.108V5.84787H20.2006V15.805C20.2006 16.9522 20.7417 17.9263 22.5816 17.9263C24.4215 17.9263 24.9627 16.9522 24.9627 15.805V5.84787H28.426V16.108C28.426 19.3549 25.9151 21.303 22.5816 21.303ZM37.937 9.87401C40.7727 9.87401 43.1104 12.3633 43.1104 15.5885C43.1104 18.8138 40.7727 21.303 37.937 21.303C36.4868 21.303 35.4261 20.8052 34.7118 19.9826V25.3292H31.4649V10.1771H34.7118V11.1944C35.4261 10.3719 36.4868 9.87401 37.937 9.87401ZM37.2877 18.2293C38.7812 18.2293 39.8635 17.212 39.8635 15.5885C39.8635 13.9651 38.7812 12.9477 37.2877 12.9477C35.7941 12.9477 34.7118 13.9651 34.7118 15.5885C34.7118 17.212 35.7941 18.2293 37.2877 18.2293ZM51.7316 13.2941H49.502V17.1254C49.502 18.0562 50.3029 18.1427 51.7316 18.0562V21C47.489 21.4329 46.2552 20.1558 46.2552 17.1254V13.2941H44.5235V10.1771H46.2552V8.12069L49.502 7.14662V10.1771H51.7316V13.2941ZM59.203 21.303C56.021 21.303 53.4668 18.8138 53.4668 15.5885C53.4668 12.3633 56.021 9.87401 59.203 9.87401C62.3849 9.87401 64.9391 12.3633 64.9391 15.5885C64.9391 18.8138 62.3849 21.303 59.203 21.303ZM59.203 18.1427C60.6099 18.1427 61.6922 17.1254 61.6922 15.5885C61.6922 14.0517 60.6099 13.0343 59.203 13.0343C57.796 13.0343 56.7137 14.0517 56.7137 15.5885C56.7137 17.1254 57.796 18.1427 59.203 18.1427Z" fill="black"/>
<path d="M14.6193 29.4421H21.857V65.6308H13.5853V38.1791L7.17477 39.9369L5.15854 32.8542L14.6193 29.4421ZM48.9117 46.761C51.9619 48.7255 53.6162 51.8791 53.6162 55.4463C53.6162 62.0636 48.86 66.3546 40.3298 66.3546C31.7996 66.3546 27.0434 62.0636 27.0434 55.4463C27.0434 51.8791 28.6977 48.7255 31.7479 46.761C29.6283 45.1067 28.2841 42.7286 28.2841 39.4716C28.2841 32.4406 33.6607 28.7184 40.3298 28.7184C46.9988 28.7184 52.3754 32.4406 52.3754 39.4716C52.3754 42.7286 51.0313 45.1067 48.9117 46.761ZM40.3298 36.4731C38.0034 36.4731 36.5558 37.9723 36.5558 39.9886C36.5558 42.0048 38.0034 43.504 40.3298 43.504C42.6562 43.504 44.1037 42.0048 44.1037 39.9886C44.1037 37.9723 42.6562 36.4731 40.3298 36.4731ZM40.3298 58.5999C43.2249 58.5999 45.3445 56.9972 45.3445 54.2572C45.3445 51.5172 43.2249 49.9146 40.3298 49.9146C37.4347 49.9146 35.3151 51.5172 35.3151 54.2572C35.3151 56.9972 37.4347 58.5999 40.3298 58.5999Z" fill="black"/>
<path d="M62.0559 37.4334C60.2331 37.4334 58.8842 36.0481 58.8842 34.3347C58.8842 32.6212 60.2331 31.2359 62.0559 31.2359C63.8605 31.2359 65.2094 32.5665 65.2094 34.3347C65.2094 36.0481 63.8605 37.4334 62.0559 37.4334ZM60.3972 42.2457L68.6363 33.1316L69.8393 33.8243L61.6002 42.9566L60.3972 42.2457ZM62.0377 35.3372C62.621 35.3372 63.022 34.8633 63.022 34.3347C63.022 33.7696 62.621 33.3321 62.0377 33.3321C61.4726 33.3321 61.0716 33.7696 61.0716 34.3347C61.0716 34.8997 61.4726 35.3372 62.0377 35.3372ZM68.5634 44.4695C66.7406 44.4695 65.3917 43.0842 65.3917 41.3707C65.3917 39.6573 66.7406 38.2719 68.5634 38.2719C70.368 38.2719 71.7168 39.6573 71.7168 41.3707C71.7168 43.0842 70.368 44.4695 68.5634 44.4695ZM68.5451 42.3733C69.1284 42.3733 69.5295 41.8993 69.5295 41.3707C69.5295 40.8056 69.1284 40.3682 68.5451 40.3682C67.9801 40.3682 67.5791 40.8056 67.5791 41.3707C67.5791 41.9358 67.9801 42.3733 68.5451 42.3733Z" fill="black"/>
<path d="M59.887 65.0359L56.2505 53.8712H59.0416L61.5138 62.0852L63.986 53.8712H66.7772L63.1407 65.0359H59.887ZM74.1956 65.0359L73.6374 63.2814H69.4905L68.9323 65.0359H66.1411L69.9371 53.8712H73.1908L76.9868 65.0359H74.1956ZM70.2561 60.889H72.8718L71.564 56.7899L70.2561 60.889Z" fill="black"/>
</svg>
