<svg width="76" height="79" viewBox="0 0 76 79" fill="none" xmlns="http://www.w3.org/2000/svg">
<path d="M26.8699 8.8554C34.7344 9.16403 40.8813 5.53166 46.1921 0C53.7176 6.97986 56.5877 8.30936 65.4918 8.90288C65.4918 9.21151 65.4918 9.52015 65.4918 9.82878C65.4918 14.6007 65.4466 19.3727 65.5144 24.1446C65.5822 30.6022 63.4126 36.1338 59.5256 41.0007C56.0227 45.3691 51.5707 48.3367 46.6215 50.5209C46.4181 50.6158 46.1243 50.6633 45.9209 50.5684C39.548 47.7432 34.079 43.7072 30.3953 37.3684C28.0224 33.2849 26.8021 28.8453 26.8699 24.0259C26.9151 19.3014 26.8925 14.6007 26.8925 9.87626C26.8699 9.54389 26.8699 9.23525 26.8699 8.8554ZM30.6439 20.3935C30.6439 21.723 30.6665 23.0525 30.6439 24.4058C30.5761 28.1331 31.5253 31.5518 33.2654 34.7568C36.1355 40.0273 40.4971 43.541 45.6271 46.105C45.9887 46.295 46.5989 46.2238 46.9831 46.0338C50.4181 44.3007 53.5594 42.0928 56.1131 39.1014C59.5708 35.0655 61.6951 30.436 61.7403 24.9043C61.7629 21.3669 61.7403 17.8532 61.7403 14.3158C61.7403 13.1288 61.4917 12.7727 60.3844 12.559C55.5482 11.7043 51.2769 9.52015 47.3899 6.41007C46.3503 5.57914 46.0113 5.57914 44.9944 6.38633C41.1073 9.47266 36.8587 11.6806 32.0225 12.5353C30.8473 12.7489 30.6213 13.0576 30.6213 14.3396C30.6213 16.3576 30.6439 18.3755 30.6439 20.3935Z" fill="black"/>
<path d="M9.33392 72.8135C9.31132 72.4336 9.28872 72.1487 9.28872 71.8401C9.28872 66.1423 9.31131 60.4444 9.26611 54.7466C9.26611 54.0581 9.49211 53.6782 10.0345 53.3696C14.5769 50.6869 19.3227 49.571 24.4301 51.2329C26.4415 51.8739 28.2946 52.8948 29.9443 54.2717C32.4754 56.3847 35.3003 57.4293 38.5546 57.3343C41.2665 57.2394 43.9784 57.2869 46.6903 57.3343C49.1536 57.3581 50.8259 59.3523 50.5547 61.8926C50.3513 63.8156 48.6338 65.2876 46.5095 65.3113C42.8484 65.3351 39.1648 65.3113 35.5037 65.3113C35.2551 65.3113 34.9161 65.2164 34.7579 65.3588C34.3738 65.6912 33.9218 66.071 33.7862 66.5221C33.6054 67.1631 33.9896 67.6617 34.6223 67.8516C34.9161 67.9466 35.2325 67.9466 35.5489 67.9466C38.5094 67.9466 41.4699 67.9228 44.453 67.9703C46.5095 68.0178 48.453 67.7329 50.3965 66.902C54.1028 65.3351 57.922 64.0293 61.6961 62.6048C64.5436 61.5365 67.3685 60.4444 70.216 59.3998C72.1369 58.7113 74.1708 59.661 74.9844 61.5128C75.8205 63.4358 75.2104 65.5487 73.4702 66.712C73.3346 66.807 73.1765 66.902 73.0409 66.9732C64.7922 72.1725 55.8881 75.6387 46.5547 77.9415C39.097 79.7696 31.82 79.2236 24.6787 76.3509C19.7295 74.4041 14.7351 72.9559 9.33392 72.8135Z" fill="black"/>
<path d="M0.0226074 62.7238C0.0226074 58.3555 0.0451983 54.0109 0 49.6425C0 48.7641 0.271192 48.5267 1.06216 48.5742C2.6667 48.6217 4.27123 48.6217 5.87577 48.5742C6.53115 48.5505 6.77974 48.7641 6.77974 49.4764C6.75714 58.3317 6.75714 67.2109 6.77974 76.0663C6.77974 76.7073 6.59895 76.9685 5.96617 76.9447C4.24864 76.921 2.53111 76.8972 0.813577 76.9447C0.158202 76.9685 0.0226074 76.6836 0.0226074 76.0425C0.0452065 71.6267 0.0226074 67.1634 0.0226074 62.7238Z" fill="black"/>
<path d="M33.1306 14.9807C36.8142 14.221 40.1589 12.7728 43.3002 10.7786C44.1137 10.2563 44.9047 9.68647 45.6957 9.09294C46.0799 8.80805 46.3511 8.80805 46.7352 9.09294C50.4867 11.9419 54.5771 13.9836 59.1195 14.9332C59.1647 15.0045 59.21 15.0519 59.21 15.1232C59.1874 19.0167 59.4585 22.9102 59.097 26.7563C58.6224 31.9555 55.9557 36.0865 52.159 39.3627C50.4867 40.8109 48.5884 41.9268 46.7578 43.1613C46.5318 43.3275 46.0799 43.375 45.8313 43.2325C40.8143 40.5498 36.7238 36.8937 34.4413 31.3383C33.5599 29.2016 33.108 26.9462 33.1306 24.5958C33.1532 21.7232 33.1532 18.8505 33.1532 15.9778C33.1306 15.6692 33.1306 15.3368 33.1306 14.9807ZM41.334 32.834C41.5148 32.7627 41.8538 32.644 42.1476 32.4778C43.3002 31.8606 44.4527 31.2196 45.5827 30.5548C46.0121 30.2937 46.3511 30.2699 46.8256 30.5311C48.0008 31.2433 49.1985 31.9081 50.4189 32.5016C50.8483 32.7153 51.4811 32.739 51.9104 32.5728C52.5206 32.3354 52.5206 31.6469 52.4302 31.0296C52.4076 30.816 52.3624 30.626 52.3398 30.4124C52.1364 29.1778 51.9104 27.967 51.7748 26.7325C51.7296 26.3764 51.9104 25.8778 52.1364 25.5929C53.063 24.5483 54.1026 23.6224 55.0065 22.5778C55.3229 22.198 55.5941 21.462 55.4585 21.0347C55.3229 20.6073 54.6901 20.2275 54.193 20.1088C52.9274 19.8239 51.6393 19.6814 50.3511 19.5152C49.8087 19.444 49.4471 19.2304 49.1986 18.6606C48.6562 17.3786 48.046 16.1678 47.4584 14.9095C47.1872 14.316 46.7804 13.8411 46.1703 14.0073C45.7183 14.126 45.1985 14.5059 44.9725 14.9095C44.3171 16.1203 43.7522 17.3786 43.2098 18.6368C42.9612 19.2066 42.6222 19.4203 42.0572 19.4915C40.7691 19.6577 39.4809 19.8001 38.2154 20.085C37.7408 20.2037 37.1758 20.5836 36.9046 21.0109C36.5882 21.557 36.9272 22.1268 37.3792 22.5778C38.3736 23.5512 39.3227 24.5721 40.2945 25.5455C40.6787 25.9016 40.7691 26.2814 40.6787 26.8037C40.4075 28.2282 40.1815 29.6527 39.9555 31.1009C39.7973 32.0742 40.3623 32.834 41.334 32.834Z" fill="black"/>
<path d="M51.5038 22.3641C50.8259 23.1238 50.2609 23.8123 49.6281 24.4295C49.0857 24.9518 48.9275 25.5454 49.0857 26.2813C49.2665 27.136 49.3795 28.0144 49.5603 29.0828C48.6563 28.5842 47.8654 28.1806 47.097 27.7295C46.4642 27.3497 45.8992 27.3497 45.2665 27.7533C44.5433 28.2044 43.7749 28.5842 42.8484 29.1065C43.0066 28.0619 43.0969 27.1597 43.2777 26.2813C43.4359 25.4979 43.2325 24.9043 42.6902 24.382C42.08 23.7885 41.515 23.1238 40.837 22.4115C41.6506 22.2928 42.3964 22.1267 43.1421 22.0554C44.0913 21.9842 44.7241 21.5806 45.0857 20.631C45.3795 19.8713 45.7636 19.159 46.193 18.2569C46.645 19.2065 47.0518 19.99 47.3908 20.8209C47.7072 21.6043 48.2496 21.9367 49.0179 22.0317C49.8315 22.1029 50.6451 22.2216 51.5038 22.3641Z" fill="black"/>
</svg>
