<svg width="88" height="65" viewBox="0 0 88 65" fill="none" xmlns="http://www.w3.org/2000/svg">
<path d="M9.59703 65C3.77375 64.5938 2.08207 59.2392 0 54.3278C0.42292 54.6971 0.813307 55.1033 1.23623 55.4726C1.69168 55.9157 2.14713 56.3589 2.57005 56.802C4.91238 59.2023 7.58003 60.3101 10.8333 60.3101C32.1094 60.1994 53.3855 60.1624 74.6942 60.3471C79.021 60.384 82.5344 59.0546 85.4949 55.6203C85.8202 55.2141 86.2106 54.8817 86.601 54.5125C86.666 54.4386 86.7962 54.4017 87.2842 54.1432C84.7792 59.2023 83.12 64.5569 77.2642 65C54.6868 65 32.1419 65 9.59703 65Z" fill="black"/>
<path d="M43.5631 42.4813C49.7768 42.4813 55.4374 42.4813 61.1306 42.4813C62.6596 42.4813 64.3838 42.7028 65.067 40.7457C65.7176 38.8993 64.4488 37.6437 63.4078 36.462C57.552 29.815 51.6637 23.168 45.8078 16.484C44.1812 14.6376 42.8799 14.6007 41.1883 16.484C35.2348 23.2788 29.2489 30.0366 23.2955 36.8313C22.9051 37.2744 22.5472 37.7545 22.287 38.2715C21.246 40.2287 21.9291 41.9643 23.9136 42.3336C24.5968 42.4813 25.3125 42.4444 26.0282 42.4444C31.396 42.4444 36.7639 42.4444 42.1317 42.4444C42.4245 42.4444 42.7498 42.4813 43.0426 42.4813C43.1727 42.6659 43.3029 42.8506 43.433 43.0352C42.8149 43.5891 42.0992 44.0322 41.5461 44.66C39.0086 47.5404 36.5036 50.4208 34.0637 53.4119C33.2504 54.409 32.4045 54.7413 31.2334 54.7413C24.1413 54.7044 17.0168 54.7413 9.92471 54.7413C9.01381 54.7413 8.07037 54.6306 7.192 54.3351C1.30365 52.4887 -0.160299 46.2479 4.23156 41.1149C9.92471 34.4679 15.8131 27.9686 21.6038 21.4324C26.5162 15.9301 31.4286 10.354 36.3735 4.81482C37.5772 3.48542 38.8785 2.2668 40.2448 1.19589C42.392 -0.428937 44.6692 -0.392009 46.7838 1.26975C48.1176 2.30373 49.3864 3.48542 50.525 4.7779C61.0655 16.5948 71.5409 28.4118 82.0488 40.2656C82.5043 40.7826 82.9597 41.3365 83.3501 41.8904C87.1239 47.2819 84.9442 53.5227 78.9257 54.5936C78.1124 54.7413 77.2991 54.7783 76.4858 54.7783C69.5564 54.7783 62.5945 54.7783 55.6651 54.8152C54.559 54.8152 53.7457 54.5198 52.9649 53.5597C50.0045 49.9407 46.9465 46.4326 43.5631 42.4813Z" fill="black"/>
<path d="M43.5 41.7063C39.8564 41.7433 36.9285 38.4936 36.9285 34.4315C36.9285 30.4433 39.7913 27.1937 43.3373 27.1198C46.9484 27.0829 49.8763 30.3325 49.9089 34.3946C49.9089 38.3459 47.0135 41.6694 43.5 41.7063Z" fill="black"/>
</svg>
