<svg width="1728" height="731" viewBox="0 0 1728 731" fill="none" xmlns="http://www.w3.org/2000/svg">
<rect width="1728" height="731" fill="white"/>
<path d="M166.68 129.792C160.962 129.792 156.549 127.344 153.53 123.053C150.483 118.722 148.816 112.449 148.816 104.8H146.816C146.816 112.703 148.533 119.426 151.894 124.203C155.283 129.02 160.302 131.792 166.68 131.792V129.792ZM148.816 104.8C148.816 97.1512 150.483 90.8783 153.53 86.5474C156.549 82.2557 160.962 79.808 166.68 79.808V77.808C160.302 77.808 155.283 80.5803 151.894 85.3966C148.533 90.1737 146.816 96.8968 146.816 104.8H148.816ZM166.68 79.808C172.398 79.808 176.811 82.2557 179.83 86.5474C182.877 90.8783 184.544 97.1512 184.544 104.8H186.544C186.544 96.8968 184.827 90.1737 181.466 85.3966C178.077 80.5803 173.058 77.808 166.68 77.808V79.808ZM184.544 104.8C184.544 112.449 182.877 118.722 179.83 123.053C176.811 127.344 172.398 129.792 166.68 129.792V131.792C173.058 131.792 178.077 129.02 181.466 124.203C184.827 119.426 186.544 112.703 186.544 104.8H184.544ZM166.68 128.12C171.699 128.12 175.751 125.897 178.507 121.811C181.233 117.77 182.656 111.968 182.656 104.8H180.656C180.656 111.744 179.271 117.102 176.849 120.693C174.457 124.239 171.021 126.12 166.68 126.12V128.12ZM182.656 104.8C182.656 97.6318 181.233 91.8298 178.507 87.7888C175.751 83.7026 171.699 81.48 166.68 81.48V83.48C171.021 83.48 174.457 85.3614 176.849 88.9072C179.271 92.4982 180.656 97.8562 180.656 104.8H182.656ZM166.68 81.48C161.661 81.48 157.609 83.7026 154.853 87.7888C152.127 91.8298 150.704 97.6318 150.704 104.8H152.704C152.704 97.8562 154.089 92.4982 156.511 88.9072C158.903 85.3614 162.339 83.48 166.68 83.48V81.48ZM150.704 104.8C150.704 111.968 152.127 117.77 154.853 121.811C157.609 125.897 161.661 128.12 166.68 128.12V126.12C162.339 126.12 158.903 124.239 156.511 120.693C154.089 117.102 152.704 111.744 152.704 104.8H150.704ZM202.556 79.6V78.6H202.389L202.231 78.6545L202.556 79.6ZM205.796 79.6H206.796V78.6H205.796V79.6ZM205.796 130V131H206.796V130H205.796ZM201.98 130H200.98V131H201.98V130ZM201.98 83.776H202.98V82.4128L201.68 82.8221L201.98 83.776ZM190.316 87.448L189.354 87.72L189.634 88.7111L190.617 88.4018L190.316 87.448ZM189.38 84.136L189.055 83.1905L188.161 83.4982L188.418 84.408L189.38 84.136ZM202.556 80.6H205.796V78.6H202.556V80.6ZM204.796 79.6V130H206.796V79.6H204.796ZM205.796 129H201.98V131H205.796V129ZM202.98 130V83.776H200.98V130H202.98ZM201.68 82.8221L190.016 86.4941L190.617 88.4018L202.281 84.7298L201.68 82.8221ZM191.279 87.176L190.343 83.864L188.418 84.408L189.354 87.72L191.279 87.176ZM189.706 85.0815L202.882 80.5455L202.231 78.6545L189.055 83.1905L189.706 85.0815Z" fill="black"/>
<mask id="mask0_34_750" style="mask-type:alpha" maskUnits="userSpaceOnUse" x="1054" y="662" width="418" height="8">
<rect x="1054" y="662" width="418" height="8" fill="#D9D9D9"/>
</mask>
<g mask="url(#mask0_34_750)">
</g>
<mask id="mask1_34_750" style="mask-type:alpha" maskUnits="userSpaceOnUse" x="49" y="162" width="24" height="500">
<rect x="49" y="162" width="24" height="500" fill="#D9D9D9"/>
</mask>
<g mask="url(#mask1_34_750)">
</g>
</svg>
