<svg width="58" height="58" viewBox="0 0 58 58" fill="none" xmlns="http://www.w3.org/2000/svg">
<path d="M54.2785 14.5001C52.4176 15.3459 50.4118 15.9017 48.3335 16.1676C50.4601 14.8867 52.1035 12.8567 52.8768 10.4159C50.871 11.6242 48.6476 12.4701 46.3035 12.9534C44.3943 10.8751 41.7118 9.66675 38.6668 9.66675C32.9876 9.66675 28.3476 14.3067 28.3476 20.0342C28.3476 20.8559 28.4443 21.6534 28.6135 22.4026C20.0101 21.9676 12.3493 17.8351 7.25014 11.5759C6.35597 13.0984 5.84847 14.8867 5.84847 16.7717C5.84847 20.3726 7.66097 23.5626 10.4643 25.3751C8.74847 25.3751 7.15347 24.8917 5.7518 24.1667V24.2392C5.7518 29.2659 9.32847 33.4709 14.0651 34.4134C12.5444 34.8296 10.9479 34.8875 9.40097 34.5826C10.0574 36.6427 11.3428 38.4454 13.0768 39.7372C14.8107 41.0289 16.9058 41.7448 19.0676 41.7842C15.4031 44.6853 10.8606 46.2534 6.1868 46.2309C5.36514 46.2309 4.54347 46.1826 3.7218 46.0859C8.31347 49.0342 13.7751 50.7501 19.6235 50.7501C38.6668 50.7501 49.131 34.9451 49.131 21.2426C49.131 20.7834 49.131 20.3484 49.1068 19.8892C51.1368 18.4392 52.8768 16.6026 54.2785 14.5001Z" fill="black"/>
</svg>
