<svg width="50" height="50" viewBox="0 0 50 50" fill="none" xmlns="http://www.w3.org/2000/svg">
<path d="M41.3105 3.84619C42.5951 3.84619 43.827 4.35647 44.7353 5.26476C45.6436 6.17306 46.1538 7.40497 46.1538 8.6895V42.5926C46.1538 43.8772 45.6436 45.1091 44.7353 46.0174C43.827 46.9257 42.5951 47.4359 41.3105 47.4359H7.40739C6.12287 47.4359 4.89095 46.9257 3.98266 46.0174C3.07436 45.1091 2.56409 43.8772 2.56409 42.5926V8.6895C2.56409 7.40497 3.07436 6.17306 3.98266 5.26476C4.89095 4.35647 6.12287 3.84619 7.40739 3.84619H41.3105ZM40.0997 41.3818V28.547C40.0997 26.4533 39.268 24.4453 37.7874 22.9647C36.3069 21.4842 34.2989 20.6525 32.2051 20.6525C30.1467 20.6525 27.7493 21.9117 26.5869 23.8006V21.1126H19.8305V41.3818H26.5869V29.4431C26.5869 27.5784 28.0883 26.0527 29.953 26.0527C30.8521 26.0527 31.7145 26.4099 32.3503 27.0457C32.9861 27.6816 33.3433 28.5439 33.3433 29.4431V41.3818H40.0997ZM11.9601 17.3106C13.0391 17.3106 14.0739 16.8819 14.8369 16.119C15.5998 15.356 16.0285 14.3212 16.0285 13.2422C16.0285 10.9901 14.2122 9.14961 11.9601 9.14961C10.8747 9.14961 9.83371 9.58079 9.0662 10.3483C8.29869 11.1158 7.86751 12.1568 7.86751 13.2422C7.86751 15.4943 9.70796 17.3106 11.9601 17.3106ZM15.3262 41.3818V21.1126H8.61822V41.3818H15.3262Z" fill="black"/>
</svg>
