<svg width="32" height="35" viewBox="0 0 32 35" fill="none" xmlns="http://www.w3.org/2000/svg">
<path d="M0 2.71611V32.1399C0.000197124 32.2038 0.0192369 32.2661 0.054732 32.3192C0.0902271 32.3722 0.140597 32.4136 0.199526 32.4382C0.258455 32.4627 0.32332 32.4693 0.385987 32.4572C0.448653 32.445 0.506332 32.4146 0.55179 32.3698L15.8724 17.4288L0.55179 2.48626C0.506332 2.44144 0.448653 2.41104 0.385987 2.39887C0.32332 2.3867 0.258455 2.3933 0.199526 2.41785C0.140597 2.4424 0.0902271 2.48379 0.054732 2.53685C0.0192369 2.58991 0.000197124 2.65227 0 2.71611ZM22.2962 11.2894L3.08613 0.705855L3.07415 0.699116C2.74323 0.519429 2.42878 0.96715 2.6998 1.2277L17.7584 15.6267L22.2962 11.2894ZM2.7013 33.6298C2.42878 33.8904 2.74323 34.3381 3.07565 34.1584L3.08763 34.1517L22.2962 23.5681L17.7584 19.2294L2.7013 33.6298ZM30.0512 15.557L24.6868 12.6027L19.6428 17.4288L24.6868 22.2526L30.0512 19.3005C31.5104 18.4942 31.5104 16.3634 30.0512 15.557Z" fill="#2D2D2D"/>
</svg>
