<svg width="48" height="48" viewBox="0 0 48 48" fill="none" xmlns="http://www.w3.org/2000/svg">
<path d="M26.0559 4.00222C27.5154 3.99662 28.9748 4.01128 30.4339 4.04622L30.8219 4.06022C31.2699 4.07622 31.7119 4.09622 32.2459 4.12022C34.3739 4.22022 35.8259 4.55622 37.0999 5.05022C38.4199 5.55822 39.5319 6.24622 40.6439 7.35822C41.6607 8.35743 42.4476 9.56611 42.9499 10.9002C43.4439 12.1742 43.7799 13.6282 43.8799 15.7562C43.9039 16.2882 43.9239 16.7322 43.9399 17.1802L43.9519 17.5682C43.9874 19.0266 44.0028 20.4854 43.9979 21.9442L43.9999 23.4362V26.0562C44.0048 27.5157 43.9895 28.9752 43.9539 30.4342L43.9419 30.8222C43.9259 31.2702 43.9059 31.7122 43.8819 32.2462C43.7819 34.3742 43.4419 35.8262 42.9499 37.1002C42.4492 38.4357 41.6621 39.6454 40.6439 40.6442C39.6438 41.6609 38.4345 42.4477 37.0999 42.9502C35.8259 43.4442 34.3739 43.7802 32.2459 43.8802C31.7119 43.9042 31.2699 43.9242 30.8219 43.9402L30.4339 43.9522C28.9749 43.9878 27.5154 44.0031 26.0559 43.9982L24.5639 44.0002H21.9459C20.4864 44.0051 19.027 43.9898 17.5679 43.9542L17.1799 43.9422C16.7051 43.925 16.2304 43.905 15.7559 43.8822C13.6279 43.7822 12.1759 43.4422 10.8999 42.9502C9.56527 42.4489 8.35638 41.6619 7.3579 40.6442C6.33999 39.6448 5.55235 38.4353 5.0499 37.1002C4.5559 35.8262 4.2199 34.3742 4.1199 32.2462C4.09763 31.7716 4.07763 31.297 4.0599 30.8222L4.0499 30.4342C4.01303 28.9752 3.99636 27.5157 3.9999 26.0562V21.9442C3.99432 20.4854 4.00899 19.0266 4.0439 17.5682L4.0579 17.1802C4.0739 16.7322 4.0939 16.2882 4.1179 15.7562C4.2179 13.6262 4.5539 12.1762 5.0479 10.9002C5.55065 9.56546 6.33983 8.35711 7.3599 7.36022C8.35769 6.34172 9.56583 5.55336 10.8999 5.05022C12.1759 4.55622 13.6259 4.22022 15.7559 4.12022L17.1799 4.06022L17.5679 4.05022C19.0263 4.01336 20.4851 3.99669 21.9439 4.00022L26.0559 4.00222ZM23.9999 14.0022C22.6749 13.9835 21.3594 14.2283 20.1299 14.7224C18.9003 15.2164 17.7812 15.95 16.8376 16.8803C15.894 17.8107 15.1447 18.9193 14.6333 20.1417C14.1219 21.3642 13.8585 22.6761 13.8585 24.0012C13.8585 25.3263 14.1219 26.6382 14.6333 27.8607C15.1447 29.0831 15.894 30.1918 16.8376 31.1221C17.7812 32.0525 18.9003 32.786 20.1299 33.2801C21.3594 33.7742 22.6749 34.019 23.9999 34.0002C26.6521 34.0002 29.1956 32.9466 31.071 31.0713C32.9463 29.1959 33.9999 26.6524 33.9999 24.0002C33.9999 21.3481 32.9463 18.8045 31.071 16.9291C29.1956 15.0538 26.6521 14.0022 23.9999 14.0022ZM23.9999 18.0022C24.7969 17.9875 25.5889 18.1318 26.3295 18.4266C27.0701 18.7215 27.7446 19.1609 28.3135 19.7193C28.8823 20.2777 29.3343 20.9439 29.6428 21.6789C29.9513 22.4139 30.1103 23.203 30.1104 24.0002C30.1106 24.7973 29.9519 25.5865 29.6436 26.3217C29.3353 27.0568 28.8836 27.7231 28.3149 28.2817C27.7462 28.8403 27.0719 29.28 26.3314 29.575C25.5908 29.8701 24.7989 30.0146 24.0019 30.0002C22.4106 30.0002 20.8845 29.3681 19.7593 28.2429C18.634 27.1176 18.0019 25.5915 18.0019 24.0002C18.0019 22.4089 18.634 20.8828 19.7593 19.7576C20.8845 18.6324 22.4106 18.0002 24.0019 18.0002L23.9999 18.0022ZM34.4999 11.0022C33.8547 11.028 33.2445 11.3025 32.7971 11.7682C32.3497 12.2338 32.0999 12.8545 32.0999 13.5002C32.0999 14.1459 32.3497 14.7666 32.7971 15.2323C33.2445 15.6979 33.8547 15.9724 34.4999 15.9982C35.1629 15.9982 35.7988 15.7348 36.2677 15.266C36.7365 14.7971 36.9999 14.1613 36.9999 13.4982C36.9999 12.8352 36.7365 12.1993 36.2677 11.7305C35.7988 11.2616 35.1629 10.9982 34.4999 10.9982V11.0022Z" fill="black"/>
</svg>
