<svg width="34" height="37" viewBox="0 0 34 37" fill="none" xmlns="http://www.w3.org/2000/svg">
<path d="M0 2.41121V33.9399C0.000211225 34.0083 0.0206131 34.0752 0.0586474 34.132C0.0966817 34.1889 0.150655 34.2332 0.2138 34.2595C0.276945 34.2858 0.34645 34.2929 0.413599 34.2799C0.480749 34.2668 0.542554 34.2343 0.591264 34.1862L17.0079 18.1764L0.591264 2.16492C0.542554 2.11689 0.480749 2.08432 0.413599 2.07128C0.34645 2.05824 0.276945 2.06531 0.2138 2.09162C0.150655 2.11792 0.0966817 2.16228 0.0586474 2.21913C0.0206131 2.27599 0.000211225 2.34281 0 2.41121ZM23.8912 11.5979L3.30691 0.25715L3.29407 0.24993C2.93947 0.0573879 2.60252 0.537138 2.89294 0.816324L19.0287 16.2453L23.8912 11.5979ZM2.89455 35.5364C2.60252 35.8156 2.93947 36.2954 3.29567 36.1028L3.30851 36.0956L23.8912 24.7549L19.0287 20.1058L2.89455 35.5364ZM32.201 16.1707L26.4528 13.005L21.048 18.1764L26.4528 23.3453L32.201 20.182C33.7646 19.318 33.7646 17.0348 32.201 16.1707Z" fill="black"/>
</svg>
