<svg width="38" height="41" viewBox="0 0 38 41" fill="none" xmlns="http://www.w3.org/2000/svg">
<path d="M0 2.47007V37.7787C0.000236548 37.8553 0.0230843 37.9301 0.0656784 37.9938C0.108273 38.0574 0.168717 38.1071 0.239432 38.1366C0.310147 38.166 0.387984 38.174 0.463184 38.1594C0.538384 38.1448 0.607599 38.1083 0.662148 38.0545L19.0469 20.1253L0.662148 2.19425C0.607599 2.14047 0.538384 2.10399 0.463184 2.08939C0.387984 2.07478 0.310147 2.0827 0.239432 2.11216C0.168717 2.14162 0.108273 2.1913 0.0656784 2.25497C0.0230843 2.31864 0.000236548 2.39347 0 2.47007ZM26.7555 12.7581L3.70336 0.0577679L3.68898 0.0496819C3.29187 -0.165943 2.91453 0.371323 3.23977 0.683979L21.31 17.9627L26.7555 12.7581ZM3.24156 39.5666C2.91453 39.8792 3.29188 40.4165 3.69078 40.2009L3.70516 40.1928L26.7555 27.4925L21.31 22.286L3.24156 39.5666ZM36.0615 17.8792L29.6242 14.3339L23.5714 20.1253L29.6242 25.9139L36.0615 22.3714C37.8125 21.4037 37.8125 18.8468 36.0615 17.8792Z" fill="black"/>
</svg>
